<?xml version="1.0" encoding="UTF-8" standalone="no"?>
<!-- Created with Inkscape (http://www.inkscape.org/) -->

<svg
   xmlns:dc="http://purl.org/dc/elements/1.1/"
   xmlns:cc="http://creativecommons.org/ns#"
   xmlns:rdf="http://www.w3.org/1999/02/22-rdf-syntax-ns#"
   xmlns:svg="http://www.w3.org/2000/svg"
   xmlns="http://www.w3.org/2000/svg"
   xmlns:sodipodi="http://sodipodi.sourceforge.net/DTD/sodipodi-0.dtd"
   xmlns:inkscape="http://www.inkscape.org/namespaces/inkscape"
   width="210mm"
   height="297mm"
   viewBox="0 0 210 297"
   version="1.1"
   id="svg8"
   inkscape:export-filename="/home/jompa/bitmap.png"
   inkscape:export-xdpi="96"
   inkscape:export-ydpi="96"
   inkscape:version="0.92.5 (2060ec1f9f, 2020-04-08)"
   sodipodi:docname="logoMint.svg">
  <defs
     id="defs2" />
  <sodipodi:namedview
     id="base"
     pagecolor="#ffffff"
     bordercolor="#666666"
     borderopacity="1.0"
     inkscape:pageopacity="0.0"
     inkscape:pageshadow="2"
     inkscape:zoom="0.7"
     inkscape:cx="243.0541"
     inkscape:cy="711.49361"
     inkscape:document-units="mm"
     inkscape:current-layer="layer1"
     showgrid="false"
     inkscape:window-width="1024"
     inkscape:window-height="740"
     inkscape:window-x="0"
     inkscape:window-y="1"
     inkscape:window-maximized="1" />
  <metadata
     id="metadata5">
    <rdf:RDF>
      <cc:Work
         rdf:about="">
        <dc:format>image/svg+xml</dc:format>
        <dc:type
           rdf:resource="http://purl.org/dc/dcmitype/StillImage" />
        <dc:title></dc:title>
      </cc:Work>
    </rdf:RDF>
  </metadata>
  <g
     inkscape:label="Camada 1"
     inkscape:groupmode="layer"
     id="layer1">
    <path
       style="fill:none;stroke:#000000;stroke-width:0.26458332px;stroke-linecap:butt;stroke-linejoin:miter;stroke-opacity:1"
       d="m 46.103992,50.844764 v 49.578496 c 2.540309,25.73355 13.956267,44.81036 44.628638,49.44486 l 54.79563,0.13364 V 95.612409 C 141.26495,75.686326 133.58021,57.352979 100.49334,50.844764 Z"
       id="path3899"
       inkscape:connector-curvature="0"
       sodipodi:nodetypes="ccccccc" />
    <path
       style="fill:none;stroke:#000000;stroke-width:0.26458332px;stroke-linecap:butt;stroke-linejoin:miter;stroke-opacity:1"
       d="m 50.781209,55.388345 0.133635,48.509415 c 4.473052,27.84519 20.029315,37.34575 39.021351,41.15951 l 51.048475,0.40091 -0.13363,-51.048482 C 136.21275,69.335495 120.25978,59.111813 99.557897,55.121076 Z"
       id="path3901"
       inkscape:connector-curvature="0"
       sodipodi:nodetypes="ccccccc" />
    <path
       style="fill:none;stroke:#000000;stroke-width:0.26458332px;stroke-linecap:butt;stroke-linejoin:miter;stroke-opacity:1"
       d="m 64.411954,68.885458 v 47.039432 c 2.789821,10.89884 8.270434,14.94839 14.967096,15.90254 l 12.027127,0.13364 v -8.95353 L 81.116301,122.8739 c -4.006706,-0.8789 -6.813037,-3.22493 -7.617182,-8.01808 L 73.365483,69.019091 Z"
       id="path3903"
       inkscape:connector-curvature="0"
       sodipodi:nodetypes="ccccccccc" />
    <path
       style="fill:none;stroke:#000000;stroke-width:0.26458332px;stroke-linecap:butt;stroke-linejoin:miter;stroke-opacity:1"
       d="m 82.319012,114.05401 9.087165,-0.13364 0.133636,-23.653351 c 5.273713,-4.104339 6.551834,-1.105403 8.819897,0.133636 v 23.386085 h 9.22079 l -0.13363,-23.252452 c 3.57278,-3.707832 6.30763,-2.388045 8.81989,0.267271 l 0.40091,23.519721 c -0.49786,4.98116 -3.57302,7.38503 -7.61718,8.81989 h -10.55715 l 0.13364,8.8199 11.89349,-0.13364 c 6.83548,-1.61635 12.72611,-5.0497 14.96709,-15.50163 V 89.598845 c -0.8018,-6.058113 -4.81086,-9.978058 -12.02713,-11.759858 -4.32949,-0.182143 -7.78502,1.165131 -10.69078,3.474503 -2.73187,-2.013254 -5.39717,-4.10259 -10.557143,-3.34087 -4.115459,1.404363 -8.329145,1.679115 -11.759859,10.958052 z"
       id="path3905"
       inkscape:connector-curvature="0"
       sodipodi:nodetypes="cccccccccccccccccccc" />
    <path
       style="fill:#008000;stroke-width:1.01015258"
       d="m 399.95378,547.72821 -63.13453,-0.5566 -11.61676,-3.17726 C 287.94106,533.80306 263.90427,520.91617 242.80825,499.82014 220.11461,477.1265 205.0806,447.56081 196.27974,408.31775 l -2.82802,-12.61013 -0.35121,-92.51511 -0.35122,-92.51511 64.45884,-0.67059 c 111.42966,-1.15926 117.86522,-1.07126 130.51679,1.78466 30.77355,6.94672 61.3454,20.38162 81.31919,35.736 29.40402,22.60362 49.18785,54.48633 59.04063,95.14714 l 3.0597,12.62691 0.42202,96.7221 0.42202,96.72211 -34.45008,-0.23046 c -18.94755,-0.12675 -62.86063,-0.48092 -97.58462,-0.78706 z M 346.4157,481.64372 V 464.0392 l -20.96067,-0.32569 c -20.65248,-0.32088 -21.05346,-0.36853 -27.27157,-3.2404 -7.22062,-3.33488 -13.40898,-9.46484 -16.71908,-16.56132 l -2.22383,-4.76761 -0.50507,-89.3985 -0.50508,-89.3985 -17.93021,-0.27585 -17.93021,-0.27585 v 89.52535 89.52534 l 2.99818,8.94894 c 2.97976,8.89402 8.16371,19.92039 12.0683,25.66959 3.64723,5.37023 12.93904,14.08501 18.80038,17.63283 3.14941,1.90631 9.20476,4.49572 13.45633,5.75425 7.07223,2.09348 9.81496,2.29283 32.22633,2.34235 l 24.4962,0.0541 z m 86.51417,15.4834 c 23.1875,-7.10246 38.42204,-21.79197 46.51507,-44.85096 l 2.83627,-8.08122 0.2872,-52.95849 c 0.30948,-57.06717 0.13768,-59.50894 -4.89586,-69.58193 -5.95967,-11.92639 -21.89364,-23.57938 -37.64936,-27.53411 -10.11323,-2.53846 -25.96261,0.71164 -37.57736,7.70569 -3.172,1.91007 -6.1971,3.47287 -6.72245,3.47287 -0.52534,0 -2.41382,-1.11257 -4.19661,-2.47238 -6.97089,-5.31696 -16.4299,-8.83831 -25.20142,-9.38186 -7.41756,-0.45966 -9.30583,-0.17453 -17.88935,2.70127 -16.98761,5.69149 -25.13268,12.86864 -33.03199,29.10659 l -4.61425,9.48514 -0.51652,48.41516 -0.51653,48.41514 h 18.3295 18.32949 V 389.2679 c 0,-23.26508 0.26578,-43.62907 0.59063,-45.25332 0.83022,-4.15107 8.14105,-8.64154 14.95367,-9.18485 4.74845,-0.37869 5.63105,-0.0752 10.9722,3.77213 l 5.80838,4.18394 v 43.88604 43.88604 h 18.17224 18.17224 l 0.26304,-44.65146 0.26305,-44.65146 4.17911,-2.93694 c 6.01724,-4.22873 12.13448,-4.71871 17.74106,-1.42104 2.38909,1.4052 5.32564,3.62095 6.52567,4.92389 2.15962,2.34481 2.18537,2.84819 2.52538,49.34456 l 0.3435,46.97559 -3.32542,6.77263 c -3.74305,7.62318 -8.39672,12.12014 -17.10758,16.53145 -5.8107,2.94263 -5.90379,2.95396 -26.79163,3.26213 l -20.96066,0.30924 v 10.9068 c 0,5.99874 0.29204,13.70089 0.64898,17.11589 l 0.64897,6.20909 h 22.98321 c 20.47539,0 23.73881,-0.23144 29.90813,-2.12113 z"
       id="path3907"
       inkscape:connector-curvature="0"
       transform="scale(0.26458333)" />
    <path
       style="fill:#008000;stroke-width:0.35714287"
       d="m 414.56398,386.33683 c -0.23929,-40.26081 -0.21252,-44.03061 0.31643,-44.55877 0.53235,-0.53156 0.55885,2.92316 0.33667,43.88731 -0.13264,24.45536 -0.27503,44.5068 -0.31643,44.55877 -0.0414,0.052 -0.1929,-19.69733 -0.33667,-43.88731 z"
       id="path3909"
       inkscape:connector-curvature="0"
       transform="scale(0.26458333)" />
    <path
       style="fill:#008000;stroke-width:0.35714287"
       d="m 446.22249,351.37966 c -0.0769,-3.207 -0.48466,-6.62672 -0.99427,-8.33813 l -0.229,-0.76902 0.76129,0.73389 c 0.72269,0.69667 0.75576,1.01355 0.6523,6.25 -0.072,3.64206 -0.13661,4.36342 -0.19032,2.12326 z"
       id="path3911"
       inkscape:connector-curvature="0"
       transform="scale(0.26458333)" />
    <path
       style="fill:#008000;stroke-width:0.17857143"
       d="m 446.9845,433.75774 c -0.0668,-12.96355 -0.40536,-54.95221 -0.53784,-66.69643 -0.0864,-7.66071 -0.10616,-14.77232 -0.0439,-15.80357 0.0623,-1.03125 0.42593,16.55641 0.80811,39.08369 0.38218,22.52728 0.64148,41.65228 0.57622,42.5 -0.0653,0.84772 -0.26809,2.26452 -0.45074,3.14845 l -0.3321,1.60715 z"
       id="path3913"
       inkscape:connector-curvature="0"
       transform="scale(0.26458333)" />
    <path
       style="fill:#008000;stroke-width:0.17857143"
       d="m 475.37065,461.47502 c -0.008,-0.12604 0.17486,-0.60818 0.40734,-1.07143 1.5424,-3.07346 4.04059,-10.25779 5.46504,-15.71645 l 0.87161,-3.34011 0.0132,1.50934 c 0.0127,1.45225 -0.045,1.67513 -1.52483,5.89285 -0.84592,2.41094 -1.9728,5.48841 -2.50419,6.83884 -1.06842,2.7152 -2.70416,6.2449 -2.72815,5.88696 z"
       id="path3915"
       inkscape:connector-curvature="0"
       transform="scale(0.26458333)" />
    <path
       style="fill:#008000;stroke-width:0.17857143"
       d="m 444.57855,342.32648 c -0.72201,-1.22225 -5.37805,-4.70186 -8.14399,-6.08625 -2.24271,-1.12252 -3.80132,-1.47295 -6.52569,-1.46723 -1.79898,0.004 -2.64293,0.0911 -3.75,0.3879 -2.07243,0.55565 -4.65169,1.88192 -7.48089,3.8467 -1.36448,0.94759 -2.51434,1.68944 -2.55523,1.64855 -0.0409,-0.0409 0.76483,-0.74592 1.79048,-1.56674 8.24009,-6.59442 15.59426,-6.60559 23.75748,-0.0361 2.3895,1.923 3.50423,3.08896 3.34917,3.50309 -0.1013,0.27054 -0.16543,0.23712 -0.44133,-0.22994 z"
       id="path3917"
       inkscape:connector-curvature="0"
       transform="scale(0.26458333)" />
    <path
       style="fill:#008000;stroke-width:0.17857143"
       d="m 415.59508,342.59702 c 6.5e-4,-0.78571 0.0321,-1.08492 0.0698,-0.66492 0.0377,0.42001 0.0372,1.06287 -10e-4,1.42857 -0.0384,0.36571 -0.0692,0.0221 -0.0686,-0.76365 z"
       id="path3919"
       inkscape:connector-curvature="0"
       transform="scale(0.26458333)" />
    <path
       style="fill:#008000;stroke-width:0.17857143"
       d="m 415.56206,342.68631 c 0,-0.24554 0.0405,-0.34598 0.0901,-0.22321 0.0495,0.12276 0.0495,0.32366 0,0.44642 -0.0495,0.12277 -0.0901,0.0223 -0.0901,-0.22321 z"
       id="path3921"
       inkscape:connector-curvature="0"
       transform="scale(0.26458333)" />
    <path
       style="fill:#008000;stroke-width:0.17857143"
       d=""
       id="path3923"
       inkscape:connector-curvature="0"
       transform="scale(0.26458333)" />
    <path
       style="fill:#008000;stroke-width:0.17857143"
       d="m 346.63475,345.06282 -0.0294,-3.60564 1.02678,-0.78877 c 3.1317,-2.40576 7.29392,-4.76541 10.22386,-5.79611 2.18097,-0.76722 3.73287,-0.99871 6.0004,-0.89505 3.32096,0.15182 5.18804,1.03677 10.38674,4.92309 1.58501,1.18489 3.24707,2.36838 3.69346,2.62998 0.51334,0.30084 0.81161,0.60086 0.81161,0.81636 0,0.2617 -0.75447,-0.20443 -3.25296,-2.00975 -4.37063,-3.15804 -6.70677,-4.68026 -7.94678,-5.1781 -0.92384,-0.3709 -1.31405,-0.41369 -3.71097,-0.40694 -2.97497,0.008 -4.67549,0.2882 -7.23214,1.19006 -4.30599,1.51895 -8.06161,4.31141 -9.23741,6.86841 -0.41347,0.89916 -0.49175,1.35643 -0.5902,3.44738 l -0.11349,2.41071 z"
       id="path3925"
       inkscape:connector-curvature="0"
       transform="scale(0.26458333)" />
    <path
       style="fill:#008000;stroke-width:0.17857143"
       d="m 451.0165,298.47261 c -1.56878,-0.85059 -7.5359,-2.94976 -11.64335,-4.09602 -2.34595,-0.65467 -2.1583,-0.83292 0.26786,-0.25443 2.34182,0.55838 5.30873,1.5203 7.9057,2.56317 2.54223,1.02088 4.67136,2.05434 4.23716,2.05667 -0.14732,7.9e-4 -0.49264,-0.12043 -0.76737,-0.26939 z"
       id="path3927"
       inkscape:connector-curvature="0"
       transform="scale(0.26458333)" />
    <path
       style="fill:#008000;stroke-width:0.17857143"
       d=""
       id="path3929"
       inkscape:connector-curvature="0"
       transform="scale(0.26458333)" />
    <path
       style="fill:#008000;stroke-width:0.17857143"
       d="m 393.65887,304.88445 c -2.97743,-2.17392 -6.93472,-4.79169 -8.71415,-5.76444 -0.766,-0.41874 -1.3528,-0.80128 -1.304,-0.85008 0.0488,-0.0488 0.94314,0.36348 1.9874,0.91618 1.81284,0.95948 3.15134,1.81947 7.13789,4.58607 0.98214,0.68159 2.09338,1.3334 2.4694,1.44846 0.66099,0.20224 0.76158,0.16985 3.0292,-0.97563 1.29003,-0.65166 2.36679,-1.16355 2.39279,-1.13755 0.026,0.026 -0.81481,0.66392 -1.86848,1.41758 -1.05367,0.75367 -2.11666,1.52422 -2.36219,1.71234 l -0.44643,0.34203 z"
       id="path3931"
       inkscape:connector-curvature="0"
       transform="scale(0.26458333)" />
    <path
       style="fill:#008000;stroke-width:0.17857143"
       d=""
       id="path3933"
       inkscape:connector-curvature="0"
       transform="scale(0.26458333)" />
    <path
       style="fill:#008000;stroke-width:0.35714287"
       d="m 279.1537,425.34042 c 0,-1.66965 0.0615,-2.35268 0.13671,-1.51786 0.0752,0.83482 0.0752,2.20089 0,3.03571 -0.0752,0.83483 -0.13671,0.15179 -0.13671,-1.51785 z"
       id="path3935"
       inkscape:connector-curvature="0"
       transform="scale(0.26458333)" />
    <path
       style="fill:#008000;stroke-width:0.35714287"
       d="m 278.58641,434.8047 c -0.14516,-0.78571 -0.23911,-23.44643 -0.20878,-50.35714 l 0.0552,-48.92857 0.29446,44.64286 c 0.3141,47.62129 0.28999,56.97486 -0.14084,54.64285 z"
       id="path3937"
       inkscape:connector-curvature="0"
       transform="scale(0.26458333)" />
    <path
       style="fill:#ffffff;stroke-width:0.35714287"
       d="m 278.50889,420.98475 c -0.13378,-4.18474 -0.18819,-10.58183 -0.1209,-14.21576 0.12088,-6.52787 0.12396,-6.49573 0.2567,2.67857 0.0802,5.54609 0.23822,8.63847 0.39225,7.67857 0.14184,-0.88393 0.20893,1.26146 0.14908,4.76752 -0.0598,3.50607 -0.18196,6.4478 -0.27135,6.53719 -0.0894,0.0894 -0.27199,-3.26135 -0.40578,-7.44609 z"
       id="path3939"
       inkscape:connector-curvature="0"
       transform="scale(0.26458333)" />
    <path
       style="fill:#008000;stroke-width:0.25253814"
       d="m 531.67853,452.59047 c -0.16986,-41.70352 -0.2875,-80.54073 -0.26142,-86.30491 l 0.0474,-10.48033 0.18001,7.70241 c 0.18665,7.98622 0.60196,164.9074 0.43645,164.9074 -0.0515,0 -0.23259,-34.12105 -0.40245,-75.82457 z"
       id="path3955"
       inkscape:connector-curvature="0"
       transform="scale(0.26458333)" />
    <path
       style="fill:#008000;stroke-width:0.25253814"
       d="m 427.211,461.16571 c 4.16448,-2.16659 7.42947,-4.45154 9.99574,-6.99536 2.81909,-2.79441 4.19746,-4.7856 6.72704,-9.71784 2.18125,-4.25306 2.59361,-4.69986 1.33852,-1.45034 -2.31867,6.00322 -6.86613,11.49659 -12.80371,15.46696 -2.64688,1.76994 -7.34267,4.2921 -7.96779,4.27959 -0.17614,-0.004 1.04345,-0.71588 2.7102,-1.58301 z"
       id="path3957"
       inkscape:connector-curvature="0"
       transform="scale(0.26458333)" />
    <path
       style="fill:#008000;stroke-width:0.25253814"
       d=""
       id="path3959"
       inkscape:connector-curvature="0"
       transform="scale(0.26458333)" />
    <path
       style="fill:#00ffff;stroke-width:1.42857146"
       d="m 292.97685,495.76083 c -20.15859,-4.75101 -36.49263,-21.98651 -45.41583,-47.92225 -2.65447,-7.71535 -2.79263,-12.52323 -2.79263,-97.179 V 261.5975 h 15.71428 15.71429 v 86.16929 c 0,97.98831 -0.13357,96.62947 10.54817,107.31121 8.8358,8.8358 15.94269,10.80522 38.99203,10.80522 h 19.03123 v 15.71428 15.71429 l -23.21429,-0.1435 c -12.76786,-0.079 -25.62762,-0.71229 -28.57725,-1.40746 z"
       id="path4001"
       inkscape:connector-curvature="0"
       transform="scale(0.26458333)" />
    <path
       style="fill:#00ffff;stroke-width:1.42857146"
       d="m 381.91124,492.52733 c 0,-2.63145 -0.41576,-9.70288 -0.92391,-15.71428 l -0.9239,-10.92983 h 20.9714 c 19.44678,0 21.47558,-0.25549 27.90655,-3.51432 8.16395,-4.13698 16.68509,-13.53581 18.8634,-20.80634 1.02139,-3.4091 1.37522,-20.97985 1.04113,-51.70093 -0.47992,-44.1297 -0.6537,-46.69985 -3.35987,-49.68956 -8.31316,-9.18422 -20.87779,-9.63608 -30.27061,-1.08863 -3.11982,2.83903 -3.12314,2.90669 -2.27456,46.25006 l 0.84982,43.40686 h -16.65401 -16.65401 l -0.0305,-43.92857 -0.0305,-43.92857 -5.32664,-3.74802 c -8.39271,-5.90541 -12.72262,-6.23324 -21.77601,-1.64876 l -7.83635,3.96821 -0.3782,44.21442 c -0.28389,33.18873 -0.81825,44.49392 -2.14286,45.33526 -0.97056,0.61647 -8.45779,1.1307 -16.63829,1.14273 l -14.87364,0.0219 0.95534,-47.91823 0.95534,-47.91823 4.35652,-8.63022 c 8.98646,-17.80208 23.53869,-27.9788 42.1439,-29.47225 12.36578,-0.99261 17.49467,0.2702 27.58483,6.79178 l 8.73339,5.64466 5.11619,-3.47194 c 2.81391,-1.90957 8.76437,-4.84277 13.22327,-6.51824 22.10181,-8.30494 51.19407,3.67079 61.94633,25.5 3.25382,6.60592 3.30995,7.53546 3.72558,61.70527 0.40916,53.32385 0.3265,55.29533 -2.71477,64.75367 -5.56207,17.29809 -17.08516,31.64865 -31.15412,38.79853 -13.01652,6.61503 -19.82877,7.87806 -42.49102,7.87806 h -21.91922 z"
       id="path4003"
       inkscape:connector-curvature="0"
       transform="scale(0.26458333)" />
    <path
       style="fill:#ffffff;stroke-width:1.42857146"
       d="m 329.29279,562.88123 c -42.23387,-8.86675 -74.22062,-24.92237 -98.98176,-49.68351 -28.66539,-28.66539 -45.02698,-65.21696 -52.7794,-117.90844 -2.49128,-16.9327 -2.75071,-27.32966 -2.75667,-110.47749 l -0.007,-91.78571 102.50001,0.004 102.5,0.004 16.42857,4.17399 c 42.64395,10.83451 72.24103,25.77821 96.08957,48.5161 25.2168,24.04243 39.90026,51.31364 51.70998,96.03958 l 5.04852,19.11979 0.004,102.5 0.005,102.5 -103.21429,-0.10143 c -96.78684,-0.0951 -104.04455,-0.27574 -116.54702,-2.90056 z M 533.33981,452.78496 v -98.81253 l -3.78348,-14.40175 C 511.57024,271.10698 468.36174,229.96121 394.97313,211.41234 l -16.22384,-4.10055 h -72.4776 c -39.86269,0 -82.30414,0.42532 -94.31435,0.94517 l -21.83674,0.94516 0.7814,94.41198 c 0.72883,88.0612 0.9754,95.2452 3.66551,106.79889 15.85021,68.07446 52.01609,110.38094 110.84205,129.66193 29.984,9.82764 21.01311,9.11111 125.7874,10.04696 52.64285,0.47021 97.16071,0.99458 98.92857,1.16527 l 3.21428,0.31035 z"
       id="path4005"
       inkscape:connector-curvature="0"
       transform="scale(0.26458333)" />
    <path
       style="fill:#ffffff;stroke-width:1.42857146"
       d="m 306.19696,495.92095 c -14.14803,-0.79242 -17.51015,-1.47767 -24.21999,-4.93639 -11.5682,-5.96306 -21.82493,-17.28741 -28.90384,-31.91243 -6.00719,-12.41084 -6.02252,-12.4844 -7.05713,-33.8848 -0.57028,-11.79584 -1.08429,-53.42911 -1.14224,-92.5184 l -0.10537,-71.07143 h 15.65393 15.65393 l 0.4175,89.64286 c 0.45371,97.41872 0.1668,94.03019 8.7194,102.98233 9.05953,9.48276 13.55836,10.84156 37.76952,11.4076 l 21.78572,0.50936 v 15.58607 15.58607 l -11.07143,-0.23534 c -6.08929,-0.12943 -18.46429,-0.64943 -27.5,-1.1555 z"
       id="path4007"
       inkscape:connector-curvature="0"
       transform="scale(0.26458333)" />
    <path
       style="fill:#ffffff;stroke-width:1.42857146"
       d="m 381.89552,486.95465 c -0.009,-5.69643 -0.41419,-12.76786 -0.9012,-15.71429 l -0.88548,-5.35714 h 20.94708 c 23.58967,0 27.10595,-0.90582 36.51529,-9.4066 11.79431,-10.65544 11.68045,-9.99507 11.19598,-64.93429 l -0.42738,-48.46508 -4.51013,-4.50825 c -8.24373,-8.24029 -23.82023,-6.97528 -29.98626,2.43526 -2.14446,3.27286 -2.2828,7.8018 -1.39551,45.68456 l 0.98493,42.05154 h -16.47508 -16.47509 v -44.31718 -44.31717 l -6.70826,-4.25425 c -8.18496,-5.19075 -10.01937,-5.24192 -20.43007,-0.56988 l -8.20989,3.68438 -0.62874,44.14228 c -0.3458,24.27825 -0.93479,44.44833 -1.30885,44.82239 -0.37406,0.37406 -7.56614,1.12531 -15.98241,1.66943 l -15.3023,0.98932 0.91721,-47.71037 0.9172,-47.71038 4.16342,-8.33416 c 8.51759,-17.05017 21.69661,-26.97041 39.1054,-29.4358 12.2885,-1.74026 19.92256,-0.15098 30.68814,6.38877 l 8.07823,4.90727 10.99877,-5.69161 c 10.11494,-5.23426 11.9097,-5.69161 22.33513,-5.69161 12.82753,0 21.38507,2.64079 31.81789,9.81877 7.17267,4.93492 14.75055,14.84037 16.78796,21.94446 0.70437,2.45596 1.35566,29.26037 1.44731,59.56536 0.16283,53.8371 0.093,55.29644 -3.04431,63.67141 -10.08484,26.92069 -28.55284,41.1369 -56.70867,43.65297 -7.66324,0.6848 -19.23673,1.26803 -25.71887,1.29607 l -11.78572,0.051 -0.0157,-10.35714 z"
       id="path4009"
       inkscape:connector-curvature="0"
       transform="scale(0.26458333)"
       inkscape:export-filename="/home/jompa/path4009.png"
       inkscape:export-xdpi="190.49998"
       inkscape:export-ydpi="190.49998" />
  </g>
  <g
     inkscape:groupmode="layer"
     id="layer2"
     inkscape:label="fundo"
     style="opacity:0">
    <path
       style="fill:#ffffff;stroke-width:1.42857146"
       d="m 329.29279,562.88123 c -42.23387,-8.86675 -74.22062,-24.92237 -98.98176,-49.68351 -28.66539,-28.66539 -45.02698,-65.21696 -52.7794,-117.90844 -2.49128,-16.9327 -2.75071,-27.32966 -2.75667,-110.47749 l -0.007,-91.78571 102.50001,0.004 102.5,0.004 16.42857,4.17399 c 42.64395,10.83451 72.24103,25.77821 96.08957,48.5161 25.2168,24.04243 39.90026,51.31364 51.70998,96.03958 l 5.04852,19.11979 0.004,102.5 0.005,102.5 -103.21429,-0.10143 c -96.78684,-0.0951 -104.04455,-0.27574 -116.54702,-2.90056 z M 533.33981,452.78496 v -98.81253 l -3.78348,-14.40175 C 511.57024,271.10698 468.36174,229.96121 394.97313,211.41234 l -16.22384,-4.10055 h -72.4776 c -39.86269,0 -82.30414,0.42532 -94.31435,0.94517 l -21.83674,0.94516 0.7814,94.41198 c 0.72883,88.0612 0.9754,95.2452 3.66551,106.79889 15.85021,68.07446 52.01609,110.38094 110.84205,129.66193 29.984,9.82764 21.01311,9.11111 125.7874,10.04696 52.64285,0.47021 97.16071,0.99458 98.92857,1.16527 l 3.21428,0.31035 z"
       id="path3964"
       inkscape:connector-curvature="0"
       transform="scale(0.26458333)" />
    <path
       style="fill:#ffffff;stroke-width:1.42857146"
       d="m 292.97685,495.76083 c -20.15859,-4.75101 -36.49263,-21.98651 -45.41583,-47.92225 -2.65447,-7.71535 -2.79263,-12.52323 -2.79263,-97.179 V 261.5975 h 15.71428 15.71429 v 86.16929 c 0,97.98831 -0.13357,96.62947 10.54817,107.31121 8.8358,8.8358 15.94269,10.80522 38.99203,10.80522 h 19.03123 v 15.71428 15.71429 l -23.21429,-0.1435 c -12.76786,-0.079 -25.62762,-0.71229 -28.57725,-1.40746 z"
       id="path3966"
       inkscape:connector-curvature="0"
       transform="scale(0.26458333)" />
    <path
       style="fill:#ffffff;stroke-width:1.42857146"
       d="m 381.91124,492.52733 c 0,-2.63145 -0.41576,-9.70288 -0.92391,-15.71428 l -0.9239,-10.92983 h 20.9714 c 19.44678,0 21.47558,-0.25549 27.90655,-3.51432 8.16395,-4.13698 16.68509,-13.53581 18.8634,-20.80634 1.02139,-3.4091 1.37522,-20.97985 1.04113,-51.70093 -0.47992,-44.1297 -0.6537,-46.69985 -3.35987,-49.68956 -8.31316,-9.18422 -20.87779,-9.63608 -30.27061,-1.08863 -3.11982,2.83903 -3.12314,2.90669 -2.27456,46.25006 l 0.84982,43.40686 h -16.65401 -16.65401 l -0.0305,-43.92857 -0.0305,-43.92857 -5.32664,-3.74802 c -8.39271,-5.90541 -12.72262,-6.23324 -21.77601,-1.64876 l -7.83635,3.96821 -0.3782,44.21442 c -0.28389,33.18873 -0.81825,44.49392 -2.14286,45.33526 -0.97056,0.61647 -8.45779,1.1307 -16.63829,1.14273 l -14.87364,0.0219 0.95534,-47.91823 0.95534,-47.91823 4.35652,-8.63022 c 8.98646,-17.80208 23.53869,-27.9788 42.1439,-29.47225 12.36578,-0.99261 17.49467,0.2702 27.58483,6.79178 l 8.73339,5.64466 5.11619,-3.47194 c 2.81391,-1.90957 8.76437,-4.84277 13.22327,-6.51824 22.10181,-8.30494 51.19407,3.67079 61.94633,25.5 3.25382,6.60592 3.30995,7.53546 3.72558,61.70527 0.40916,53.32385 0.3265,55.29533 -2.71477,64.75367 -5.56207,17.29809 -17.08516,31.64865 -31.15412,38.79853 -13.01652,6.61503 -19.82877,7.87806 -42.49102,7.87806 h -21.91922 z"
       id="path3968"
       inkscape:connector-curvature="0"
       transform="scale(0.26458333)"
       inkscape:export-xdpi="96"
       inkscape:export-ydpi="96" />
    <path
       style="fill:#ffffff;stroke-width:1.42857146"
       d="m 292.97685,495.76083 c -20.15859,-4.75101 -36.49263,-21.98651 -45.41583,-47.92225 -2.65447,-7.71535 -2.79263,-12.52323 -2.79263,-97.179 V 261.5975 h 15.71428 15.71429 v 86.16929 c 0,97.98831 -0.13357,96.62947 10.54817,107.31121 8.8358,8.8358 15.94269,10.80522 38.99203,10.80522 h 19.03123 v 15.71428 15.71429 l -23.21429,-0.1435 c -12.76786,-0.079 -25.62762,-0.71229 -28.57725,-1.40746 z"
       id="path3970"
       inkscape:connector-curvature="0"
       transform="scale(0.26458333)" />
    <path
       style="fill:#ffffff;stroke-width:1.42857146"
       d="m 292.97685,495.76083 c -20.15859,-4.75101 -36.49263,-21.98651 -45.41583,-47.92225 -2.65447,-7.71535 -2.79263,-12.52323 -2.79263,-97.179 V 261.5975 h 15.71428 15.71429 v 86.16929 c 0,97.98831 -0.13357,96.62947 10.54817,107.31121 8.8358,8.8358 15.94269,10.80522 38.99203,10.80522 h 19.03123 v 15.71428 15.71429 l -23.21429,-0.1435 c -12.76786,-0.079 -25.62762,-0.71229 -28.57725,-1.40746 z"
       id="path3972"
       inkscape:connector-curvature="0"
       transform="scale(0.26458333)" />
    <path
       style="fill:#ffffff;stroke-width:1.42857146"
       d="m 329.29279,562.88123 c -42.23387,-8.86675 -74.22062,-24.92237 -98.98176,-49.68351 -28.66539,-28.66539 -45.02698,-65.21696 -52.7794,-117.90844 -2.49128,-16.9327 -2.75071,-27.32966 -2.75667,-110.47749 l -0.007,-91.78571 102.50001,0.004 102.5,0.004 16.42857,4.17399 c 42.64395,10.83451 72.24103,25.77821 96.08957,48.5161 25.2168,24.04243 39.90026,51.31364 51.70998,96.03958 l 5.04852,19.11979 0.004,102.5 0.005,102.5 -103.21429,-0.10143 c -96.78684,-0.0951 -104.04455,-0.27574 -116.54702,-2.90056 z M 533.33981,452.78496 v -98.81253 l -3.78348,-14.40175 C 511.57024,271.10698 468.36174,229.96121 394.97313,211.41234 l -16.22384,-4.10055 h -72.4776 c -39.86269,0 -82.30414,0.42532 -94.31435,0.94517 l -21.83674,0.94516 0.7814,94.41198 c 0.72883,88.0612 0.9754,95.2452 3.66551,106.79889 15.85021,68.07446 52.01609,110.38094 110.84205,129.66193 29.984,9.82764 21.01311,9.11111 125.7874,10.04696 52.64285,0.47021 97.16071,0.99458 98.92857,1.16527 l 3.21428,0.31035 z"
       id="path3974"
       inkscape:connector-curvature="0"
       transform="scale(0.26458333)" />
    <path
       style="fill:#ffffff;stroke-width:1.42857146"
       d="m 329.29279,562.88123 c -42.23387,-8.86675 -74.22062,-24.92237 -98.98176,-49.68351 -28.66539,-28.66539 -45.02698,-65.21696 -52.7794,-117.90844 -2.49128,-16.9327 -2.75071,-27.32966 -2.75667,-110.47749 l -0.007,-91.78571 102.50001,0.004 102.5,0.004 16.42857,4.17399 c 42.64395,10.83451 72.24103,25.77821 96.08957,48.5161 25.2168,24.04243 39.90026,51.31364 51.70998,96.03958 l 5.04852,19.11979 0.004,102.5 0.005,102.5 -103.21429,-0.10143 c -96.78684,-0.0951 -104.04455,-0.27574 -116.54702,-2.90056 z M 533.33981,452.78496 v -98.81253 l -3.78348,-14.40175 C 511.57024,271.10698 468.36174,229.96121 394.97313,211.41234 l -16.22384,-4.10055 h -72.4776 c -39.86269,0 -82.30414,0.42532 -94.31435,0.94517 l -21.83674,0.94516 0.7814,94.41198 c 0.72883,88.0612 0.9754,95.2452 3.66551,106.79889 15.85021,68.07446 52.01609,110.38094 110.84205,129.66193 29.984,9.82764 21.01311,9.11111 125.7874,10.04696 52.64285,0.47021 97.16071,0.99458 98.92857,1.16527 l 3.21428,0.31035 z"
       id="path3976"
       inkscape:connector-curvature="0"
       transform="scale(0.26458333)" />
    <path
       style="fill:#ffffff;stroke-width:1.42857146"
       d="m 381.91124,492.52733 c 0,-2.63145 -0.41576,-9.70288 -0.92391,-15.71428 l -0.9239,-10.92983 h 20.9714 c 19.44678,0 21.47558,-0.25549 27.90655,-3.51432 8.16395,-4.13698 16.68509,-13.53581 18.8634,-20.80634 1.02139,-3.4091 1.37522,-20.97985 1.04113,-51.70093 -0.47992,-44.1297 -0.6537,-46.69985 -3.35987,-49.68956 -8.31316,-9.18422 -20.87779,-9.63608 -30.27061,-1.08863 -3.11982,2.83903 -3.12314,2.90669 -2.27456,46.25006 l 0.84982,43.40686 h -16.65401 -16.65401 l -0.0305,-43.92857 -0.0305,-43.92857 -5.32664,-3.74802 c -8.39271,-5.90541 -12.72262,-6.23324 -21.77601,-1.64876 l -7.83635,3.96821 -0.3782,44.21442 c -0.28389,33.18873 -0.81825,44.49392 -2.14286,45.33526 -0.97056,0.61647 -8.45779,1.1307 -16.63829,1.14273 l -14.87364,0.0219 0.95534,-47.91823 0.95534,-47.91823 4.35652,-8.63022 c 8.98646,-17.80208 23.53869,-27.9788 42.1439,-29.47225 12.36578,-0.99261 17.49467,0.2702 27.58483,6.79178 l 8.73339,5.64466 5.11619,-3.47194 c 2.81391,-1.90957 8.76437,-4.84277 13.22327,-6.51824 22.10181,-8.30494 51.19407,3.67079 61.94633,25.5 3.25382,6.60592 3.30995,7.53546 3.72558,61.70527 0.40916,53.32385 0.3265,55.29533 -2.71477,64.75367 -5.56207,17.29809 -17.08516,31.64865 -31.15412,38.79853 -13.01652,6.61503 -19.82877,7.87806 -42.49102,7.87806 h -21.91922 z"
       id="path3978"
       inkscape:connector-curvature="0"
       transform="scale(0.26458333)" />
    <path
       style="fill:#ffffff;stroke-width:1.42857146"
       d="m 381.91124,492.52733 c 0,-2.63145 -0.41576,-9.70288 -0.92391,-15.71428 l -0.9239,-10.92983 h 20.9714 c 19.44678,0 21.47558,-0.25549 27.90655,-3.51432 8.16395,-4.13698 16.68509,-13.53581 18.8634,-20.80634 1.02139,-3.4091 1.37522,-20.97985 1.04113,-51.70093 -0.47992,-44.1297 -0.6537,-46.69985 -3.35987,-49.68956 -8.31316,-9.18422 -20.87779,-9.63608 -30.27061,-1.08863 -3.11982,2.83903 -3.12314,2.90669 -2.27456,46.25006 l 0.84982,43.40686 h -16.65401 -16.65401 l -0.0305,-43.92857 -0.0305,-43.92857 -5.32664,-3.74802 c -8.39271,-5.90541 -12.72262,-6.23324 -21.77601,-1.64876 l -7.83635,3.96821 -0.3782,44.21442 c -0.28389,33.18873 -0.81825,44.49392 -2.14286,45.33526 -0.97056,0.61647 -8.45779,1.1307 -16.63829,1.14273 l -14.87364,0.0219 0.95534,-47.91823 0.95534,-47.91823 4.35652,-8.63022 c 8.98646,-17.80208 23.53869,-27.9788 42.1439,-29.47225 12.36578,-0.99261 17.49467,0.2702 27.58483,6.79178 l 8.73339,5.64466 5.11619,-3.47194 c 2.81391,-1.90957 8.76437,-4.84277 13.22327,-6.51824 22.10181,-8.30494 51.19407,3.67079 61.94633,25.5 3.25382,6.60592 3.30995,7.53546 3.72558,61.70527 0.40916,53.32385 0.3265,55.29533 -2.71477,64.75367 -5.56207,17.29809 -17.08516,31.64865 -31.15412,38.79853 -13.01652,6.61503 -19.82877,7.87806 -42.49102,7.87806 h -21.91922 z"
       id="path3980"
       inkscape:connector-curvature="0"
       transform="scale(0.26458333)"
       inkscape:export-filename="/home/jompa/logoMint.png"
       inkscape:export-xdpi="96"
       inkscape:export-ydpi="96" />
  </g>
</svg>
